HIERARCHY
ROOT Hips
{
	OFFSET -0.001795 -0.223333 0.028219
	CHANNELS 6 Xposition Yposition Zposition Zrotation Yrotation Xrotation 
	JOINT LeftUpLeg
	{
		OFFSET 0.069520 -0.091406 -0.006815
		CHANNELS 3 Zrotation Yrotation Xrotation
		JOINT LeftLeg
		{
			OFFSET 0.034277 -0.375199 -0.004496
			CHANNELS 3 Zrotation Yrotation Xrotation
			JOINT LeftFoot
			{
				OFFSET -0.013596 -0.397961 -0.043693
				CHANNELS 3 Zrotation Yrotation Xrotation
				JOINT LeftToe
				{
					OFFSET 0.026358 -0.055791 0.119288
					CHANNELS 3 Zrotation Yrotation Xrotation
					End Site
					{
						OFFSET 0.000000 0.000000 0.000000
					}
				}
			}
		}
	}
	JOINT RightUpLeg
	{
		OFFSET -0.067670 -0.090522 -0.004320
		CHANNELS 3 Zrotation Yrotation Xrotation
		JOINT RightLeg
		{
			OFFSET -0.038290 -0.382569 -0.008850
			CHANNELS 3 Zrotation Yrotation Xrotation
			JOINT RightFoot
			{
				OFFSET 0.015774 -0.398415 -0.042312
				CHANNELS 3 Zrotation Yrotation Xrotation
				JOINT RightToe
				{
					OFFSET -0.025372 -0.048144 0.123348
					CHANNELS 3 Zrotation Yrotation Xrotation
					End Site
					{
						OFFSET 0.000000 0.000000 0.000000
					}
				}
			}
		}
	}
	JOINT Spine
	{
		OFFSET -0.002533 0.108963 -0.026696
		CHANNELS 3 Zrotation Yrotation Xrotation
		JOINT Spine1
		{
			OFFSET 0.005487 0.135180 0.001092
			CHANNELS 3 Zrotation Yrotation Xrotation
			JOINT Spine2
			{
				OFFSET 0.001457 0.052922 0.025425
				CHANNELS 3 Zrotation Yrotation Xrotation
				JOINT Neck
				{
					OFFSET -0.002778 0.213870 -0.042857
					CHANNELS 3 Zrotation Yrotation Xrotation
					JOINT Head
					{
						OFFSET 0.005152 0.064970 0.051349
						CHANNELS 3 Zrotation Yrotation Xrotation
						End Site
						{
							OFFSET 0.000000 0.000000 0.000000
						}
					}
				}
				JOINT LeftShoulder
				{
					OFFSET 0.078845 0.121749 -0.034090
					CHANNELS 3 Zrotation Yrotation Xrotation
					JOINT LeftArm
					{
						OFFSET 0.090977 0.030469 -0.008868
						CHANNELS 3 Zrotation Yrotation Xrotation
						JOINT LeftForeArm
						{
							OFFSET 0.259612 -0.012772 -0.027456
							CHANNELS 3 Zrotation Yrotation Xrotation
							JOINT LeftHand
							{
								OFFSET 0.249234 0.008986 -0.001171
								CHANNELS 3 Zrotation Yrotation Xrotation
								End Site
								{
									OFFSET 0.000000 0.000000 0.000000
								}
							}
						}
					}
				}
				JOINT RightShoulder
				{
					OFFSET -0.081759 0.118833 -0.038615
					CHANNELS 3 Zrotation Yrotation Xrotation
					JOINT RightArm
					{
						OFFSET -0.096012 0.032551 -0.009143
						CHANNELS 3 Zrotation Yrotation Xrotation
						JOINT RightForeArm
						{
							OFFSET -0.253742 -0.013329 -0.021401
							CHANNELS 3 Zrotation Yrotation Xrotation
							JOINT RightHand
							{
								OFFSET -0.255298 0.007772 -0.005559
								CHANNELS 3 Zrotation Yrotation Xrotation
								End Site
								{
									OFFSET 0.000000 0.000000 0.000000
								}
							}
						}
					}
				}
			}
		}
	}
}
MOTION
Frames: 7
Frame Time: 0.050000
-0.092460 0.301770 0.333183 -7.634335 10.037281 -30.488971 26.067006 4.099145 -67.212173 -5.935153 -2.249826 151.405120 5.923270 -4.075543 -39.861628 0.000000 0.000000 0.000000 -14.719260 -7.982891 -66.897334 6.541252 -11.108798 136.146965 -8.359339 -22.999137 -45.673108 0.000000 0.000000 0.000000 -17.485967 4.603221 90.917446 17.913920 -3.721590 -28.668059 10.594958 23.975935 29.819804 -4.613340 9.590640 -19.593443 0.000000 0.000000 0.000000 -14.511698 -23.266473 5.280249 5.256903 -33.082548 -2.861773 115.216211 -63.694823 -96.413838 0.000000 0.000000 0.000000 -18.198992 32.323754 1.132078 9.334233 26.826015 1.448301 -109.820798 56.332449 -60.450053 0.000000 0.000000 0.000000 
-0.092646 0.291874 0.337924 -7.852001 10.588917 -30.231057 26.072129 3.850254 -68.944494 -5.467440 -4.901832 153.451791 5.715770 -6.666914 -40.049269 0.000000 0.000000 0.000000 -14.567380 -8.475070 -68.671275 6.226870 -10.437631 138.128489 -8.318085 -23.037581 -45.142975 0.000000 0.000000 0.000000 -17.024126 3.779227 90.607504 17.154346 -3.625477 -27.981975 10.804535 23.857108 29.796767 -4.003252 8.960786 -15.912755 0.000000 0.000000 0.000000 -16.527734 -22.998281 4.931414 5.967787 -31.784255 -2.675868 117.991592 -63.615028 -98.794818 0.000000 0.000000 0.000000 -17.552729 31.698959 1.282467 10.937437 25.205102 1.349330 -113.288691 56.846763 -63.862052 0.000000 0.000000 0.000000 
-0.092750 0.284328 0.340874 -7.917296 10.689765 -29.952950 25.768278 3.635908 -70.782883 -5.233918 -5.605073 155.155428 5.588818 -5.785074 -38.690589 0.000000 0.000000 0.000000 -14.425421 -8.705286 -70.275530 6.131880 -10.161397 139.507377 -8.264903 -23.030487 -44.738016 0.000000 0.000000 0.000000 -17.071572 3.739490 90.505031 16.772763 -3.513622 -28.016996 11.119367 23.579063 30.727625 -3.766651 8.671983 -13.974964 0.000000 0.000000 0.000000 -17.181148 -22.369708 4.691555 6.881011 -30.843740 -2.689629 120.450302 -62.455784 -100.110042 0.000000 0.000000 0.000000 -17.020807 31.500203 1.389367 11.818934 23.905231 1.189677 -117.836059 56.841537 -68.060984 0.000000 0.000000 0.000000 
-0.092884 0.278084 0.342324 -7.938618 10.730887 -29.674566 25.860530 3.712589 -72.403829 -4.934294 -7.523844 156.095562 5.334864 -7.859886 -38.252876 0.000000 0.000000 0.000000 -13.877503 -8.594066 -72.046353 5.889603 -9.339682 140.725506 -8.221789 -23.048718 -43.912106 0.000000 0.000000 0.000000 -17.414945 4.068198 90.729321 16.014938 -3.340443 -27.887914 11.888580 23.319122 31.279607 -2.829125 7.677153 -11.603282 0.000000 0.000000 0.000000 -17.343215 -22.839220 5.024274 7.647814 -29.870878 -2.650952 121.069208 -60.976777 -99.049848 0.000000 0.000000 0.000000 -16.407651 31.216678 1.565169 11.837100 22.477556 0.906297 -120.627695 56.336349 -70.235482 0.000000 0.000000 0.000000 
-0.092961 0.275127 0.343469 -7.906715 10.547500 -29.113291 25.724929 3.781090 -74.279390 -4.743667 -8.068548 156.949774 5.028124 -7.842139 -36.413092 0.000000 0.000000 0.000000 -13.325001 -8.284760 -73.599649 5.783424 -8.898205 141.371592 -8.189754 -23.237458 -43.225174 0.000000 0.000000 0.000000 -17.839900 4.624797 90.910504 16.079363 -3.280778 -28.211460 12.084996 23.209786 32.341445 -2.572409 7.468389 -11.188189 0.000000 0.000000 0.000000 -17.052818 -22.946472 5.201448 9.164887 -29.843488 -2.974962 120.596795 -58.979541 -96.286894 0.000000 0.000000 0.000000 -16.772987 31.015385 1.306311 11.528984 21.810637 0.777618 -121.081371 54.524832 -68.163000 0.000000 0.000000 0.000000 
-0.092869 0.272063 0.345435 -7.990958 10.809900 -29.092701 25.500846 3.506146 -75.856045 -4.692442 -7.945860 157.766454 4.755943 -6.964775 -34.422395 0.000000 0.000000 0.000000 -13.274093 -8.604765 -74.782255 6.817089 -13.008693 141.627060 -8.177936 -28.475037 -41.639655 0.000000 0.000000 0.000000 -17.807455 4.524098 91.711675 15.686406 -3.092470 -28.450279 12.148043 22.342922 32.869681 -1.963375 6.672879 -10.058474 0.000000 0.000000 0.000000 -16.031174 -23.673573 5.901333 10.589104 -30.123126 -3.299511 117.523122 -56.860008 -90.479560 0.000000 0.000000 0.000000 -18.040335 30.500373 0.668257 11.370462 21.670037 0.745394 -119.755260 52.781828 -64.643920 0.000000 0.000000 0.000000 
-0.092805 0.268195 0.348703 -7.564886 10.346113 -29.295567 25.635463 3.960544 -77.127708 -4.495319 -9.048975 157.982425 3.884421 -8.382588 -31.152121 0.000000 0.000000 0.000000 -13.093114 -8.320362 -76.066220 8.104439 -17.945984 141.915510 -8.300546 -34.786181 -40.196397 0.000000 0.000000 0.000000 -17.907726 5.047914 92.164209 16.544454 -3.322726 -28.547867 10.979578 22.346232 32.752969 -2.098205 6.568894 -8.379185 0.000000 0.000000 0.000000 -15.696118 -24.422511 6.246090 12.703224 -29.922125 -3.722641 113.741858 -55.805782 -85.036389 0.000000 0.000000 0.000000 -17.060756 30.707489 1.010768 9.559539 20.894579 0.493915 -117.653422 51.567627 -61.281318 0.000000 0.000000 0.000000 
